# xmcd CD database file
#
# Track frame offsets:
#	150
#	16245
#	25806
#	35789
#	44262
#	53510
#	67940
#	88083
#	97240
#	115631
#	140405
#
# Disc length: 2047 seconds
#
# Revision: 0
# Processed by: cddbd v1.5.1PL2 Copyright (c) Steve Scherf et al.
# Submitted via: CDex 1.60beta1
#
DISCID=8b07fd0b
DTITLE=斬 - おいしい愛情(ケーキ)のつくりかた。
DYEAR=1900
DGENRE=未分類 (日本)
TTITLE0=Rewind Life
TTITLE1=interlude 〜ケーキの作り方#1〜
TTITLE2=朝 (Instrumental)
TTITLE3=interlude 〜ケーキの作り方#2〜
TTITLE4=夜風 (Instrumental)
TTITLE5=interlude 〜ケーキの作り方#3〜
TTITLE6=涙
TTITLE7=interlude 〜ケーキの作り方#4〜
TTITLE8=夏
TTITLE9=春
TTITLE10=ボーナストラック
EXTD=
EXTT0=
EXTT1=
EXTT2=
EXTT3=
EXTT4=
EXTT5=
EXTT6=
EXTT7=
EXTT8=
EXTT9=
EXTT10=
PLAYORDER=
